<?xml version="1.0" encoding="UTF-8" standalone="no"?>
<!-- Created with Inkscape (http://www.inkscape.org/) -->

<svg
   width="1920"
   height="1080"
   viewBox="0 0 507.99999 285.75"
   version="1.1"
   id="svg5"
   xml:space="preserve"
   inkscape:version="1.2.2 (b0a8486541, 2022-12-01)"
   sodipodi:docname="ui_masks.svg"
   inkscape:export-filename="ui_masks.png"
   inkscape:export-xdpi="96"
   inkscape:export-ydpi="96"
   xmlns:inkscape="http://www.inkscape.org/namespaces/inkscape"
   xmlns:sodipodi="http://sodipodi.sourceforge.net/DTD/sodipodi-0.dtd"
   xmlns="http://www.w3.org/2000/svg"
   xmlns:svg="http://www.w3.org/2000/svg"><sodipodi:namedview
     id="namedview7"
     pagecolor="#ffffff"
     bordercolor="#000000"
     borderopacity="0.25"
     inkscape:showpageshadow="2"
     inkscape:pageopacity="0.0"
     inkscape:pagecheckerboard="0"
     inkscape:deskcolor="#d1d1d1"
     inkscape:document-units="mm"
     showgrid="false"
     inkscape:zoom="0.38663019"
     inkscape:cx="894.91201"
     inkscape:cy="761.70979"
     inkscape:window-width="1920"
     inkscape:window-height="1041"
     inkscape:window-x="0"
     inkscape:window-y="0"
     inkscape:window-maximized="1"
     inkscape:current-layer="layer2" /><defs
     id="defs2" /><g
     inkscape:groupmode="layer"
     id="layer2"
     inkscape:label="Layer1"><circle
       style="fill:#000000;fill-opacity:1;stroke-width:1.98472;stroke-linejoin:round"
       id="path355"
       cx="254.07544"
       cy="268.41086"
       r="13.458347"
       inkscape:label="health_bar" /><path
       style="fill:#000000;fill-opacity:1;stroke-width:2.287;stroke-linejoin:round;stroke-dasharray:none"
       id="path355-6"
       sodipodi:type="arc"
       sodipodi:cx="254.07544"
       sodipodi:cy="268.41086"
       sodipodi:rx="15.511343"
       sodipodi:ry="15.511343"
       sodipodi:start="3.5691983"
       sodipodi:end="5.8782689"
       sodipodi:arc-type="slice"
       d="m 239.96072,261.97841 a 15.511343,15.511343 0 0 1 14.29069,-9.0779 15.511343,15.511343 0 0 1 14.08105,9.39978 l -14.25702,6.11057 z"
       inkscape:label="endurance_bar" /><rect
       style="fill:#000000;fill-opacity:1;stroke-width:6.57314;stroke-linejoin:round;stroke-dasharray:none"
       id="rect1055"
       width="508"
       height="3.8830693"
       x="0"
       y="281.86694"
       inkscape:label="exp_bar" /><path
       style="fill:#000000;fill-opacity:1;stroke-width:2.28708;stroke-linejoin:round;stroke-dasharray:none"
       d="m 33.3888,282.42451 -2.026314,-3.14552 -0.196581,1.73911 -0.619992,-0.92248 -0.362921,0.72588 -1.481932,-0.34781 0.166339,-1.10397 -1.22486,-1.04345 -0.226827,0.43854 0.514141,0.36296 -0.483897,0.66539 -1.239982,-1.33082 -0.120974,-0.96785 -0.25707,0.62004 -2.117043,-2.23815 1.512174,2.9943 -4.763348,-3.03968 0.619991,1.24008 L 0,277.0257 v 5.5803 z"
       id="path1111"
       inkscape:label="left_dragon" /><path
       style="fill:#000000;fill-opacity:1;stroke-width:2.287;stroke-linejoin:round;stroke-dasharray:none"
       d="m 474.78415,282.42399 2.02631,-3.14531 0.19658,1.739 0.62,-0.92242 0.36292,0.72583 1.48193,-0.34779 -0.16634,-1.1039 1.22486,-1.04338 0.22683,0.43852 -0.51414,0.36293 0.48389,0.66535 1.23999,-1.33073 0.12097,-0.96779 0.25707,0.62 2.11704,-2.238 -1.51217,2.9941 4.76335,-3.03948 -0.61999,1.24 21.0797,-0.0454 v 5.57993 z"
       id="path1111-7"
       inkscape:label="right_dragon" /><rect
       style="fill:#000000;fill-opacity:1;stroke-width:2.287;stroke-linejoin:round;stroke-dasharray:none"
       id="rect1113"
       width="72.523849"
       height="15.787109"
       x="168.15373"
       y="265.53772"
       inkscape:label="weapon_skills" /><rect
       style="fill:#000000;fill-opacity:1;stroke-width:2.287;stroke-linejoin:round;stroke-dasharray:none"
       id="rect1115"
       width="10.52473"
       height="18.146086"
       x="157.14511"
       y="263.72311"
       inkscape:label="weapon_swap" /><rect
       style="fill:#000000;fill-opacity:1;stroke-width:2.287;stroke-linejoin:round;stroke-dasharray:none"
       id="rect1117"
       width="72.160965"
       height="18.0856"
       x="267.41281"
       y="262.9368"
       inkscape:label="utility_skills" /><rect
       style="fill:#000000;fill-opacity:1;stroke-width:2.287;stroke-linejoin:round;stroke-dasharray:none"
       id="rect1119"
       width="10.94815"
       height="18.871922"
       x="340.11816"
       y="263.48117"
       ry="0"
       inkscape:label="mount_button" /><rect
       style="fill:#000000;fill-opacity:1;stroke-width:2.29332;stroke-linejoin:round;stroke-dasharray:none"
       id="rect3396"
       width="84.832954"
       height="8.468173"
       x="0"
       y="0"
       inkscape:label="ui_buttons" /></g></svg>
